<svg id="Слой_1" enable-background="new 0 0 512 512" height="512" viewBox="0 0 512 512" width="512" xmlns="http://www.w3.org/2000/svg"><g><path d="m200.531 317.865h110.937c66.458 0 121.474 49.333 130.735 113.271 43.141-45.844 69.797-107.365 69.797-175.136 0-141.156-114.844-256-256-256s-256 114.844-256 256c0 67.771 26.656 129.292 69.797 175.135 9.26-63.937 64.276-113.27 130.734-113.27zm55.469-249.594c57.635 0 104.531 46.885 104.531 104.531 0 57.635-46.896 104.531-104.531 104.531s-104.531-46.896-104.531-104.531c0-57.646 46.896-104.531 104.531-104.531z"/><circle cx="256" cy="172.802" r="61.865"/><path d="m401.063 450.135c0-49.406-40.188-89.604-89.594-89.604h-110.938c-49.406 0-89.594 40.198-89.594 89.604v16.563c41.271 28.51 91.219 45.302 145.063 45.302s103.792-16.792 145.063-45.302z"/></g></svg>
