<?xml version="1.0" encoding="iso-8859-1"?>
<!-- Generator: Adobe Illustrator 19.0.0, SVG Export Plug-In . SVG Version: 6.00 Build 0)  -->
<svg version="1.1" id="Layer_1" xmlns="http://www.w3.org/2000/svg" xmlns:xlink="http://www.w3.org/1999/xlink" x="0px" y="0px"
	 viewBox="0 0 512 512" style="enable-background:new 0 0 512 512;" xml:space="preserve">
<g>
	<g>
		<path d="M428.522,105.739h-50.087V55.652c0-27.619-22.468-50.087-50.087-50.087H183.652c-27.619,0-50.087,22.468-50.087,50.087
			v50.087H83.478C37.446,105.739,0,143.185,0,189.217v33.391c0,27.619,22.468,50.087,50.087,50.087h155.826V256
			c0-9.223,7.479-16.696,16.696-16.696h66.783c9.217,0,16.696,7.473,16.696,16.696v16.696h155.826
			c27.619,0,50.087-22.468,50.087-50.087v-33.391C512,143.185,474.554,105.739,428.522,105.739z M345.043,105.739H166.957V55.652
			c0-9.206,7.49-16.696,16.696-16.696h144.696c9.206,0,16.696,7.49,16.696,16.696V105.739z"/>
	</g>
</g>
<g>
	<g>
		<path d="M461.913,306.087H303.01c-6.915,19.391-25.275,33.391-47.01,33.391s-40.095-14-47.01-33.391H50.087
			c-18.805,0-36.116-6.324-50.087-16.854v133.723c0,46.032,37.446,83.478,83.478,83.478h345.043
			c46.032,0,83.478-37.446,83.478-83.478V289.233C498.029,299.763,480.718,306.087,461.913,306.087z"/>
	</g>
</g>
<g>
</g>
<g>
</g>
<g>
</g>
<g>
</g>
<g>
</g>
<g>
</g>
<g>
</g>
<g>
</g>
<g>
</g>
<g>
</g>
<g>
</g>
<g>
</g>
<g>
</g>
<g>
</g>
<g>
</g>
</svg>
