<?xml version="1.0" encoding="UTF-8"?>
<svg id="Camada_2" data-name="Camada 2" xmlns="http://www.w3.org/2000/svg" viewBox="0 0 566.06 450.8">
  <defs>
    <style>
      .cls-1 {
        fill: #fff;
      }
    </style>
  </defs>
  <g id="Camada_1-2" data-name="Camada 1">
    <g>
      <path d="M106.96,437.53c-.96,4.72-7.25,10.83-11.97,12.03-6.26,1.59-55.03,1.56-62.46.41-8.51-1.32-13.92-10.49-14.6-18.4-2.01-23.32,1.8-49.51.02-73.02-.57-7.5-3.18-16.35-3.97-24.03-3.59-35.1-6.11-72.81-.89-107.86,4.18-28.05,26.11-44.76,40.89-66.11.59-.85,1.39-.99.98-2.51-12.75-1.93-36.64-2.24-47.33-9.17-12.01-7.78-9.21-30.47,4.09-35.58,7.95-3.05,28.36-4.47,36.68-3.19,8.88,1.37,12.82,12.35,10.56,19.93l9.9.89c13.29-30.03,27.01-60.93,44.7-88.79,8.23-12.97,22.16-34.76,38.92-36.1,3.85-.31,6.8,1.16,9.95,1.05,10.61-.34,23.1-3.25,34.05-4.03,61.92-4.39,123.2-4,184.99,1,6.47.52,16.22,3.07,22.02,3.01,2.63-.03,4.63-1.78,6.95-1.85,2.6-.08,9.95,2.16,12.53,3.34,20.78,9.49,46.54,63.97,56.86,85.14,2.37,4.86,15.38,35.82,17.12,36.87,2.57,1.56,7.09-.14,9.91-.62-2.36-21.73,12.87-21.04,29.6-19.88,14.14.98,27.52,3.04,29.4,19.6,3.43,30.1-35.23,23.9-54.89,28.4,14.58,20.17,40.05,45.84,42.89,71.6,3.85,34.84,1.86,72.06-1.91,106.88-.77,7.09-3.39,15.25-3.98,22.02-2.01,23.35,2.03,49.72.03,73.03-.8,9.28-5.6,15.64-14.6,18.4-18.97-1.46-41.39,2.19-59.94.07-6.55-.75-14.5-7.82-14.5-14.5v-39.5c-3.81.13-7.67-.19-11.49.01-80.31,4.26-160.52,10.43-241.05,6.03l-99.46-6.04v41.5ZM138.31,40.39c-9.2,9.43-23.06,40.2-29.21,53.29-3.56,7.56-16.04,32.38-16.17,38.9-.08,3.94,1.53,8.3,5.75,9.24,4.9,1.09,17.16.43,22.83.26,53.01-1.61,105.83-5.95,158.92-6.08,55.84-.14,111.34,4.54,167,6.08,20.34.56,31.16,2.98,21.71-20.71-7.6-19.05-19.04-43.05-29-61-10.82-19.51-14.04-26.47-37.68-29.32-70.28-8.48-166.67-8.32-236.98,0-9.21,1.09-20.44,2.47-27.15,9.35ZM135.61,235.37c-9.54-10.32-40.31-14.03-54.32-16.17-11.31-1.73-32.07-6.73-41.69-1.02-14.08,8.35-12.3,36.33.42,45.29,19.86,14,79.5,8.85,104.42,14.63,5.52-1.01,9.2-3.23,8.32-9.31-.81-5.62-13.13-29.07-17.15-33.42ZM513.79,215.28c-16.29.28-56.09,7.14-71.37,12.71-12.89,4.7-18.85,15.67-24.32,27.68-3.16,6.95-10.13,21.76,3.44,22.29,6.69.26,18.53-1.39,25.91-1.94,18.2-1.36,40.03-3.02,57.85-6.15s29.58-6.82,30.69-27.3c.83-15.21-5.69-27.58-22.2-27.29ZM179.31,274.68c9.77,10.31,40.7,11.06,55.15,12.35,42.66,3.82,86.42,3.01,128.87-3.12,18.33-2.65,24.81-7.27,31.37-24.63,2.83-7.49,8.42-19.71-2.49-23-12.13-3.66-30.03-.44-42.71-3.29-55.35.15-113.89-3.66-168.92,2.16-15.34,1.62-14.92,7.91-10.91,20.66,1.71,5.42,5.77,14.78,9.64,18.86ZM192.69,315.27c-3,.49-6.4,2.77-7.29,5.71-1.09,3.6-.97,25.1-.21,29.32.66,3.65,2.91,6.4,6.47,7.53l180.81.23c3.51-.03,7.51-3.39,8.27-6.73.8-3.58.8-25.98,0-29.57-.84-3.77-4.88-5.78-8.35-6.65l-179.7.17Z"/>
      <path class="cls-1" d="M138.31,40.39c6.72-6.88,17.95-8.26,27.15-9.35,70.32-8.32,166.7-8.48,236.98,0,23.64,2.85,26.86,9.81,37.68,29.32,9.96,17.95,21.41,41.95,29,61,9.45,23.69-1.37,21.28-21.71,20.71-55.66-1.54-111.16-6.22-167-6.08-53.08.13-105.91,4.48-158.92,6.08-5.67.17-17.92.83-22.83-.26-4.22-.94-5.83-5.29-5.75-9.24.14-6.52,12.62-31.34,16.17-38.9,6.16-13.09,20.01-43.86,29.21-53.29Z"/>
      <path class="cls-1" d="M192.69,315.27l179.7-.17c3.47.87,7.51,2.88,8.35,6.65s.81,25.99,0,29.57c-.75,3.35-4.76,6.71-8.27,6.73l-180.81-.23c-3.56-1.13-5.82-3.87-6.47-7.53-.76-4.22-.88-25.72.21-29.32.89-2.94,4.28-5.23,7.29-5.71Z"/>
      <g>
        <path class="cls-1" d="M179.31,274.68c-3.87-4.08-7.93-13.44-9.64-18.86-4.01-12.75-4.44-19.04,10.91-20.66,55.03-5.83,113.57-2.01,168.92-2.16,12.68,2.85,30.59-.37,42.71,3.29,10.92,3.3,5.32,15.52,2.49,23-6.57,17.36-13.04,21.98-31.37,24.63-42.46,6.13-86.21,6.94-128.87,3.12-14.45-1.29-45.38-2.04-55.15-12.35Z"/>
        <path class="cls-1" d="M135.61,235.37c4.02,4.35,16.34,27.8,17.15,33.42.87,6.08-2.81,8.3-8.32,9.31-24.91-5.78-84.55-.63-104.42-14.63-12.72-8.96-14.49-36.94-.42-45.29,9.62-5.71,30.38-.71,41.69,1.02,14.01,2.14,44.79,5.85,54.32,16.17Z"/>
        <path class="cls-1" d="M513.79,215.28c16.51-.29,23.03,12.08,22.2,27.29-1.11,20.48-12.82,24.16-30.69,27.3s-39.65,4.79-57.85,6.15c-7.38.55-19.23,2.2-25.91,1.94-13.57-.53-6.6-15.34-3.44-22.29,5.46-12.02,11.43-22.98,24.32-27.68,15.28-5.58,55.08-12.43,71.37-12.71Z"/>
      </g>
    </g>
  </g>
</svg>