<?xml version="1.0"?>
<svg xmlns="http://www.w3.org/2000/svg" viewBox="0 0 24 24"><g id="Layer_2" data-name="Layer 2"><path d="M22,9.5H2a.99974.99974,0,0,1-1-1V5A3.00328,3.00328,0,0,1,4,2H20a3.00328,3.00328,0,0,1,3,3V8.5A.99974.99974,0,0,1,22,9.5ZM3,7.5H21V5a1.001,1.001,0,0,0-1-1H4A1.001,1.001,0,0,0,3,5Z"/><path d="M12,6a.99974.99974,0,0,1-1-1V2a1,1,0,0,1,2,0V5A.99974.99974,0,0,1,12,6Z"/><path d="M6.5,6a.99974.99974,0,0,1-1-1V2a1,1,0,0,1,2,0V5A.99974.99974,0,0,1,6.5,6Z"/><path d="M17.5,6a.99974.99974,0,0,1-1-1V2a1,1,0,0,1,2,0V5A.99974.99974,0,0,1,17.5,6Z"/><circle cx="6.5" cy="5.5" r="1.25"/><circle cx="12" cy="5.5" r="1.25"/><circle cx="17.5" cy="5.5" r="1.25"/><path d="M22,7.5H2a.99974.99974,0,0,0-1,1V20a3.00328,3.00328,0,0,0,3,3H20a3.00328,3.00328,0,0,0,3-3V8.5A.99974.99974,0,0,0,22,7.5ZM18,18H6a1,1,0,0,1,0-2H18a1,1,0,0,1,0,2Zm0-4H6a1,1,0,0,1,0-2H18a1,1,0,0,1,0,2Z"/></g></svg>
